<svg xmlns="http://www.w3.org/2000/svg" viewBox="0 0 700 300" font-family="system-ui,-apple-system,'PingFang SC','Microsoft YaHei',sans-serif">
  <rect width="700" height="300" rx="16" fill="#1e1e1e"/>
  <text x="24" y="36" fill="#00e676" font-size="16" font-weight="700">🎬 星岛梦流媒体 &amp; AI 解锁实测</text>
  <text x="24" y="56" fill="#64748b" font-size="11">测试工具 RegionRestrictionCheck · 解锁状态随节点调整可能变化</text>
  <line x1="24" x2="676" y1="66" y2="66" stroke="#ffffff22"/>
  <rect x="28" y="84" width="118" height="76" rx="10" fill="#ffffff0a"/>
  <text x="87" y="110" fill="#e2e8f0" font-size="12.5" font-weight="600" text-anchor="middle">ChatGPT</text>
  <text x="87" y="132" font-size="14" text-anchor="middle">✅</text>
  <text x="87" y="150" fill="#00e676" font-size="10.5" text-anchor="middle">已解锁</text>
  <rect x="158" y="84" width="118" height="76" rx="10" fill="#ffffff0a"/>
  <text x="217" y="110" fill="#e2e8f0" font-size="12.5" font-weight="600" text-anchor="middle">Claude</text>
  <text x="217" y="132" font-size="14" text-anchor="middle">✅</text>
  <text x="217" y="150" fill="#00e676" font-size="10.5" text-anchor="middle">已解锁</text>
  <rect x="288" y="84" width="118" height="76" rx="10" fill="#ffffff0a"/>
  <text x="347" y="110" fill="#e2e8f0" font-size="12.5" font-weight="600" text-anchor="middle">Gemini</text>
  <text x="347" y="132" font-size="14" text-anchor="middle">⚠️</text>
  <text x="347" y="150" fill="#fbbf24" font-size="10.5" text-anchor="middle">部分区</text>
  <rect x="418" y="84" width="118" height="76" rx="10" fill="#ffffff0a"/>
  <text x="477" y="110" fill="#e2e8f0" font-size="12.5" font-weight="600" text-anchor="middle">Netflix</text>
  <text x="477" y="132" font-size="14" text-anchor="middle">✅</text>
  <text x="477" y="150" fill="#00e676" font-size="10.5" text-anchor="middle">已解锁</text>
  <rect x="548" y="84" width="118" height="76" rx="10" fill="#ffffff0a"/>
  <text x="607" y="110" fill="#e2e8f0" font-size="12.5" font-weight="600" text-anchor="middle">Disney+</text>
  <text x="607" y="132" font-size="14" text-anchor="middle">✅</text>
  <text x="607" y="150" fill="#00e676" font-size="10.5" text-anchor="middle">已解锁</text>
  <rect x="28" y="176" width="118" height="76" rx="10" fill="#ffffff0a"/>
  <text x="87" y="202" fill="#e2e8f0" font-size="12.5" font-weight="600" text-anchor="middle">YouTube</text>
  <text x="87" y="224" font-size="14" text-anchor="middle">✅</text>
  <text x="87" y="242" fill="#00e676" font-size="10.5" text-anchor="middle">已解锁</text>
  <rect x="158" y="176" width="118" height="76" rx="10" fill="#ffffff0a"/>
  <text x="217" y="202" fill="#e2e8f0" font-size="12.5" font-weight="600" text-anchor="middle">HBO Max</text>
  <text x="217" y="224" font-size="14" text-anchor="middle">✅</text>
  <text x="217" y="242" fill="#00e676" font-size="10.5" text-anchor="middle">已解锁</text>
  <rect x="288" y="176" width="118" height="76" rx="10" fill="#ffffff0a"/>
  <text x="347" y="202" fill="#e2e8f0" font-size="12.5" font-weight="600" text-anchor="middle">TikTok</text>
  <text x="347" y="224" font-size="14" text-anchor="middle">✅</text>
  <text x="347" y="242" fill="#00e676" font-size="10.5" text-anchor="middle">已解锁</text>
  <rect x="418" y="176" width="118" height="76" rx="10" fill="#ffffff0a"/>
  <text x="477" y="202" fill="#e2e8f0" font-size="12.5" font-weight="600" text-anchor="middle">Spotify</text>
  <text x="477" y="224" font-size="14" text-anchor="middle">✅</text>
  <text x="477" y="242" fill="#00e676" font-size="10.5" text-anchor="middle">已解锁</text>
  <rect x="548" y="176" width="118" height="76" rx="10" fill="#ffffff0a"/>
  <text x="607" y="202" fill="#e2e8f0" font-size="12.5" font-weight="600" text-anchor="middle">Bilibili</text>
  <text x="607" y="224" font-size="14" text-anchor="middle">⚠️</text>
  <text x="607" y="242" fill="#fbbf24" font-size="10.5" text-anchor="middle">部分区</text>
  <text x="676" y="288" fill="#ffffff4d" font-size="10" text-anchor="end" letter-spacing="2">jichangcha</text>
</svg>