<svg xmlns="http://www.w3.org/2000/svg" viewBox="0 0 700 330" font-family="system-ui,-apple-system,'PingFang SC','Microsoft YaHei',sans-serif">
  <rect width="700" height="330" rx="16" fill="#1e1e1e"/>
  <text x="24" y="36" fill="#00e676" font-size="16" font-weight="700">🌐 星岛梦测速报告(2026.7 晚高峰 20:30)</text>
  <text x="24" y="58" fill="#64748b" font-size="11">软件环境 Clash Verge Rev · 测试节点 Speedtest.net · 模拟实测示意</text>
  <line x1="24" x2="676" y1="68" y2="68" stroke="#ffffff22"/>
  <text x="40" y="96" fill="#e2e8f0" font-size="13" font-weight="600">● 香港 IEPL 01</text>
  <text x="660" y="96" fill="#94a3b8" font-size="12" text-anchor="end">延迟 48ms · 下载 <tspan fill="#00e676" font-weight="700">78.4 MB/s</tspan></text>
  <rect x="40" y="106" width="620" height="12" rx="6" fill="#ffffff12"/>
  <rect x="40" y="106" width="589" height="12" rx="6" fill="#00e676"/>
  <text x="40" y="162" fill="#e2e8f0" font-size="13" font-weight="600">● 日本 东京 专线</text>
  <text x="660" y="162" fill="#94a3b8" font-size="12" text-anchor="end">延迟 92ms · 下载 <tspan fill="#00e676" font-weight="700">58.6 MB/s</tspan></text>
  <rect x="40" y="172" width="620" height="12" rx="6" fill="#ffffff12"/>
  <rect x="40" y="172" width="446" height="12" rx="6" fill="#00e676"/>
  <text x="40" y="228" fill="#e2e8f0" font-size="13" font-weight="600">● 美国 洛杉矶 优化</text>
  <text x="660" y="228" fill="#94a3b8" font-size="12" text-anchor="end">延迟 158ms · 下载 <tspan fill="#00e676" font-weight="700">20.5 MB/s</tspan></text>
  <rect x="40" y="238" width="620" height="12" rx="6" fill="#ffffff12"/>
  <rect x="40" y="238" width="223" height="12" rx="6" fill="#fbbf24"/>
  <line x1="24" x2="676" y1="292" y2="292" stroke="#ffffff22"/>
  <text x="24" y="316" fill="#94a3b8" font-size="12">汇总:平均延迟 <tspan fill="#e2e8f0">99ms</tspan> · 最高下载 <tspan fill="#00e676">78.4 MB/s</tspan> · 丢包率 0%</text>
  <text x="676" y="316" fill="#ffffff4d" font-size="10" text-anchor="end" letter-spacing="2">jichangcha</text>
</svg>